<svg width="25" height="25" viewBox="0 0 25 25" fill="none" xmlns="http://www.w3.org/2000/svg">
<path d="M9.88281 22.5166H15.8828C20.8828 22.5166 22.8828 20.5166 22.8828 15.5166V9.5166C22.8828 4.5166 20.8828 2.5166 15.8828 2.5166H9.88281C4.88281 2.5166 2.88281 4.5166 2.88281 9.5166V15.5166C2.88281 20.5166 4.88281 22.5166 9.88281 22.5166Z" stroke="#171717" stroke-linecap="round" stroke-linejoin="round"/>
<path d="M16.3828 10.2666C17.2112 10.2666 17.8828 9.59503 17.8828 8.7666C17.8828 7.93817 17.2112 7.2666 16.3828 7.2666C15.5544 7.2666 14.8828 7.93817 14.8828 8.7666C14.8828 9.59503 15.5544 10.2666 16.3828 10.2666Z" stroke="#171717" stroke-miterlimit="10" stroke-linecap="round" stroke-linejoin="round"/>
<path d="M9.38281 10.2666C10.2112 10.2666 10.8828 9.59503 10.8828 8.7666C10.8828 7.93817 10.2112 7.2666 9.38281 7.2666C8.55439 7.2666 7.88281 7.93817 7.88281 8.7666C7.88281 9.59503 8.55439 10.2666 9.38281 10.2666Z" stroke="#171717" stroke-miterlimit="10" stroke-linecap="round" stroke-linejoin="round"/>
<path d="M9.28281 13.8164H16.4828C16.9828 13.8164 17.3828 14.2164 17.3828 14.7164C17.3828 17.2064 15.3728 19.2164 12.8828 19.2164C10.3928 19.2164 8.38281 17.2064 8.38281 14.7164C8.38281 14.2164 8.78281 13.8164 9.28281 13.8164Z" stroke="#171717" stroke-miterlimit="10" stroke-linecap="round" stroke-linejoin="round"/>
</svg>
