<svg width="26" height="26" viewBox="0 0 26 26" fill="none" xmlns="http://www.w3.org/2000/svg">
<mask id="mask0_4035_15163" style="mask-type:luminance" maskUnits="userSpaceOnUse" x="0" y="0" width="26" height="26">
<path d="M0 26V0H26V26H0Z" fill="white"/>
</mask>
<g mask="url(#mask0_4035_15163)">
<path fill-rule="evenodd" clip-rule="evenodd" d="M26.001 12.9915C26.001 20.1757 20.1752 25.9997 12.9888 25.9997C5.80237 25.9997 -0.0234375 20.1757 -0.0234375 12.9915C-0.0234375 5.80738 5.80237 -0.0166016 12.9888 -0.0166016C20.1752 -0.0166016 26.001 5.80738 26.001 12.9915Z" fill="url(#paint0_linear_4035_15163)"/>
</g>
<path fill-rule="evenodd" clip-rule="evenodd" d="M5.09769 19.3269L6.24764 20.4765C6.32317 20.552 6.41283 20.6119 6.51153 20.6528C6.61022 20.6937 6.716 20.7147 6.82282 20.7147C6.92965 20.7147 7.03543 20.6937 7.13412 20.6528C7.23281 20.6119 7.32248 20.552 7.398 20.4765L16.0239 11.8533L13.7236 9.55371L5.09769 18.1769C5.02214 18.2524 4.9622 18.342 4.92131 18.4407C4.88042 18.5393 4.85938 18.6451 4.85938 18.7519C4.85938 18.8587 4.88042 18.9644 4.92131 19.0631C4.9622 19.1617 5.02214 19.2514 5.09769 19.3269Z" fill="#FFFFFE"/>
<path fill-rule="evenodd" clip-rule="evenodd" d="M18.3186 6.10543C18.2431 6.0299 18.1534 5.96998 18.0547 5.92911C17.956 5.88823 17.8503 5.86719 17.7434 5.86719C17.6366 5.86719 17.5308 5.88823 17.4321 5.92911C17.3334 5.96998 17.2438 6.0299 17.1683 6.10543L14.293 8.97982L16.5933 11.2794L19.4686 8.40502C19.5441 8.32952 19.6041 8.23988 19.6449 8.14122C19.6858 8.04256 19.7069 7.93682 19.7069 7.83002C19.7069 7.72323 19.6858 7.61748 19.6449 7.51882C19.6041 7.42016 19.5441 7.33052 19.4686 7.25502L18.3186 6.10543Z" fill="#FFFFFE"/>
<path fill-rule="evenodd" clip-rule="evenodd" d="M8.3123 7.5293C8.15053 7.5293 7.99539 7.59354 7.881 7.70789C7.76661 7.82224 7.70235 7.97734 7.70235 8.13905V8.92645H7.2701C7.19 8.92645 7.11069 8.94222 7.03669 8.97287C6.96268 9.00351 6.89544 9.04842 6.83881 9.10505C6.78217 9.16167 6.73724 9.22888 6.70659 9.30286C6.67593 9.37684 6.66016 9.45613 6.66016 9.53621C6.66016 9.61628 6.67593 9.69557 6.70659 9.76955C6.73724 9.84353 6.78217 9.91075 6.83881 9.96737C6.89544 10.024 6.96268 10.0689 7.03669 10.0995C7.11069 10.1302 7.19 10.146 7.2701 10.146H7.70235V11.3911C7.70235 11.5528 7.76661 11.7079 7.881 11.8222C7.99539 11.9366 8.15053 12.0008 8.3123 12.0008C8.47407 12.0008 8.62921 11.9366 8.7436 11.8222C8.85798 11.7079 8.92225 11.5528 8.92225 11.3911V10.146H9.35449C9.43459 10.146 9.51391 10.1302 9.58791 10.0995C9.66191 10.0689 9.72915 10.024 9.78579 9.96737C9.84243 9.91075 9.88736 9.84353 9.91801 9.76955C9.94867 9.69557 9.96444 9.61628 9.96444 9.53621C9.96444 9.45613 9.94867 9.37684 9.91801 9.30286C9.88736 9.22888 9.84243 9.16167 9.78579 9.10505C9.72915 9.04842 9.66191 9.00351 9.58791 8.97287C9.51391 8.94222 9.43459 8.92645 9.35449 8.92645H8.92225V8.13905C8.92225 7.97734 8.85798 7.82224 8.7436 7.70789C8.62921 7.59354 8.47407 7.5293 8.3123 7.5293Z" fill="#FFFFFE"/>
<path fill-rule="evenodd" clip-rule="evenodd" d="M13.5975 3.64258C13.4357 3.64258 13.2805 3.70682 13.1662 3.82117C13.0518 3.93552 12.9875 4.09062 12.9875 4.25233V5.03973H12.5553C12.3935 5.03973 12.2383 5.10397 12.124 5.21833C12.0096 5.33268 11.9453 5.48777 11.9453 5.64949C11.9453 5.81121 12.0096 5.9663 12.124 6.08065C12.2383 6.195 12.3935 6.25924 12.5553 6.25924H12.9875V7.50437C12.9875 7.66608 13.0518 7.82118 13.1662 7.93553C13.2805 8.04988 13.4357 8.11412 13.5975 8.11412C13.7592 8.11412 13.9144 8.04988 14.0288 7.93553C14.1431 7.82118 14.2074 7.66608 14.2074 7.50437V6.25924H14.6397C14.8014 6.25924 14.9566 6.195 15.0709 6.08065C15.1853 5.9663 15.2496 5.81121 15.2496 5.64949C15.2496 5.48777 15.1853 5.33268 15.0709 5.21833C14.9566 5.10397 14.8014 5.03973 14.6397 5.03973H14.2074V4.25233C14.2074 4.09062 14.1431 3.93552 14.0288 3.82117C13.9144 3.70682 13.7592 3.64258 13.5975 3.64258Z" fill="#FFFFFE"/>
<path fill-rule="evenodd" clip-rule="evenodd" d="M20.1053 11.5947C19.9435 11.5947 19.7884 11.659 19.674 11.7733C19.5596 11.8877 19.4953 12.0428 19.4953 12.2045V12.9919H19.0631C18.9013 12.9919 18.7462 13.0561 18.6318 13.1705C18.5174 13.2848 18.4531 13.4399 18.4531 13.6016C18.4531 13.7634 18.5174 13.9184 18.6318 14.0328C18.7462 14.1472 18.9013 14.2114 19.0631 14.2114H19.4953V15.4565C19.4953 15.6182 19.5596 15.7733 19.674 15.8877C19.7884 16.002 19.9435 16.0663 20.1053 16.0663C20.267 16.0663 20.4222 16.002 20.5366 15.8877C20.651 15.7733 20.7152 15.6182 20.7152 15.4565V14.2114H21.1475C21.3092 14.2114 21.4644 14.1472 21.5788 14.0328C21.6931 13.9184 21.7574 13.7634 21.7574 13.6016C21.7574 13.4399 21.6931 13.2848 21.5788 13.1705C21.4644 13.0561 21.3092 12.9919 21.1475 12.9919H20.7152V12.2045C20.7152 12.0428 20.651 11.8877 20.5366 11.7733C20.4222 11.659 20.267 11.5947 20.1053 11.5947Z" fill="#FFFFFE"/>
<defs>
<linearGradient id="paint0_linear_4035_15163" x1="5.59547" y1="6.98778" x2="21.0349" y2="10.8713" gradientUnits="userSpaceOnUse">
<stop offset="0.00383177" stop-color="#7B61FF"/>
<stop offset="1" stop-color="#3A86FF"/>
</linearGradient>
</defs>
</svg>
